<svg width="292" height="221" viewBox="0 0 292 221" fill="none" xmlns="http://www.w3.org/2000/svg">
<path d="M0.858398 168.343L71.6209 126.447C71.6209 126.447 172.671 137.765 172.671 147.869C172.671 157.975 167.821 190.311 167.821 190.311C167.821 190.311 17.4032 175.477 0.858398 168.343Z" fill="#C02224"/>
<path d="M11.3841 164.647C11.3841 164.647 21.0137 143.303 10.0825 120.137C10.0825 120.137 142.567 139.919 147.771 140.7C152.977 141.481 164.481 143.825 165.991 146.427C167.501 149.027 168.595 172.715 168.595 172.715L166.252 184.688C166.252 184.688 15.5487 168.029 11.3841 164.647Z" fill="white"/>
<path d="M4.76367 115.808C4.76367 115.808 139.804 49.8787 143.819 48.6747C147.832 47.4707 281.903 69.1467 284.712 70.3507C287.521 71.5547 289.127 73.9627 289.931 78.78C290.735 83.5973 293.945 97.6467 289.931 100.456C285.916 103.267 194.987 182.229 168.599 193.325C168.599 193.325 170.311 153.844 167.501 149.027C164.691 144.211 162.283 145.013 159.472 143.808C156.663 142.604 4.76367 115.808 4.76367 115.808Z" fill="#C02224"/>
<path d="M266.277 106.921C265.704 98.8907 260.828 87.132 260.828 87.132L248.781 95.1627C248.781 95.1627 252.797 99.1773 255.092 109.789C256.737 117.404 255.136 126.051 254.098 130.328C258.145 126.987 262.002 123.78 265.589 120.787C266.052 117.604 266.65 112.149 266.277 106.921ZM217.498 114.425L202.893 123.269C206.334 125.851 209.489 140.477 208.916 153.097C208.593 160.197 207 165.572 205.666 168.915C210.685 165.128 215.884 161.107 221.126 156.984C221.7 152.451 222.593 143.98 222.396 136.463C222.109 125.564 217.498 114.425 217.498 114.425Z" fill="#F47224"/>
<path d="M7.48655 115.319C7.48655 115.319 158.403 137.752 162.991 139.281C167.579 140.811 171.659 144.379 173.188 153.557C174.717 162.735 173.188 191.796 168.599 193.325C164.011 194.855 126.951 189.415 109.616 187.885C92.2799 186.356 3.91788 174.461 2.38762 172.932C0.858417 171.403 -1.18172 169.872 0.858418 168.343C2.89748 166.813 55.922 175.48 62.5507 176.5C69.1783 177.52 155.852 188.737 159.421 187.207C162.991 185.677 165.54 182.108 166.049 176.5C166.56 170.892 168.089 152.537 162.991 147.948C157.892 143.36 7.99642 121.947 5.44695 119.907C2.89748 117.868 2.89748 115.319 7.48655 115.319Z" fill="#EF3337"/>
<path d="M283.223 72.888C268.867 81.3147 254.615 89.9227 240.459 98.6813C226.389 107.387 212.435 116.273 198.572 125.303C194.648 127.857 190.721 130.411 186.829 133.015C183.017 135.564 179.088 138.021 175.501 140.885C175.36 140.999 175.541 141.211 175.691 141.129C179.331 139.136 182.767 136.747 186.251 134.493C189.744 132.232 193.225 129.955 196.719 127.692C203.617 123.225 210.539 118.793 217.499 114.425C231.556 105.603 245.64 96.832 259.849 88.2573C267.821 83.4467 275.84 78.7093 283.871 73.996C284.581 73.5773 283.936 72.468 283.223 72.888Z" fill="#EF3337"/>
<path d="M153.089 175.872C135.96 173.681 118.794 171.759 101.645 169.733C84.4998 167.709 67.3605 165.619 50.2021 163.7C40.473 162.613 30.7433 161.581 20.987 160.769C20.7089 160.747 20.6402 161.22 20.9198 161.263C38.036 163.856 55.2381 165.821 72.4302 167.823C89.5785 169.821 106.726 171.819 123.874 173.816C133.61 174.951 143.343 176.116 153.089 177.155C153.916 177.243 153.893 175.975 153.089 175.872Z" fill="#FAC1BE"/>
<path d="M158.71 170.429C123.796 166.253 88.8745 162.133 53.9547 157.997L39.3073 156.264C34.3515 155.676 29.3359 154.932 24.3427 154.896C24.1089 154.895 24.0515 155.255 24.2865 155.309C28.4755 156.289 32.8089 156.735 37.0791 157.244C41.4302 157.764 45.7823 158.284 50.1339 158.804C58.9427 159.856 67.7526 160.904 76.5615 161.963C93.9665 164.057 111.372 166.151 128.781 168.211C138.757 169.391 148.734 170.572 158.71 171.752C159.554 171.852 159.546 170.528 158.71 170.429Z" fill="#FAC1BE"/>
<path d="M149.769 154.287C116.725 149.823 83.6784 145.368 50.6323 140.916C45.9724 140.289 41.3115 139.661 36.6511 139.033C32.1635 138.429 27.6411 137.665 23.1161 137.449C22.5896 137.424 22.4708 138.259 22.9911 138.375C27.1427 139.305 31.4229 139.752 35.6369 140.321C39.6615 140.864 43.6864 141.407 47.7109 141.951C55.9724 143.065 64.2333 144.181 72.4943 145.296C88.8051 147.497 105.116 149.7 121.428 151.896L149.392 155.659C150.286 155.78 150.674 154.409 149.769 154.287Z" fill="#FAC1BE"/>
<path d="M130.776 144.859C104.889 142.153 79.2011 137.961 53.4396 134.367C53.2542 134.34 53.1656 134.613 53.3594 134.656C78.8334 140.227 104.844 143.283 130.776 145.881C131.432 145.947 131.424 144.927 130.776 144.859Z" fill="#FAC1BE"/>
<path d="M124.425 160.189C124.425 160.189 103.522 187.547 109.978 220.131L123.196 205.684L141.332 215.827C141.332 215.827 126.885 185.396 143.792 162.341L124.425 160.189Z" fill="#F7981B"/>
<path d="M158.07 163.271C144.493 161.791 130.946 159.959 117.377 158.388C103.813 156.817 90.2505 155.237 76.6845 153.677C72.9761 153.251 69.2667 152.831 65.5573 152.407C61.6891 151.964 57.6938 151.207 53.7954 151.356C53.4397 151.371 53.3515 151.888 53.7099 151.987C56.8235 152.843 60.1323 153.031 63.3323 153.404C66.7235 153.799 70.1146 154.195 73.5053 154.589C80.3927 155.393 87.2811 156.18 94.1705 156.972C107.734 158.533 121.298 160.095 134.862 161.656C142.592 162.544 150.348 163.212 158.07 164.153C158.629 164.221 158.632 163.332 158.07 163.271Z" fill="#FAC1BE"/>
<path d="M154.037 131.356C154.037 131.356 279.693 69.0467 281.903 66.352C284.112 63.6573 282.073 62.3106 281.24 61.6373C280.408 60.964 172.976 24.9293 172.976 24.9293L35.9086 51.1973C35.9086 51.1973 28.444 51.8186 26.479 60.628C24.5138 69.436 30.4127 78.4773 31.4498 82.5173C32.4862 86.5573 48.706 94.6413 48.706 94.6413L154.037 131.356Z" fill="#098C8B"/>
<path d="M153.376 131.127L154.037 131.356C154.037 131.356 279.693 69.0467 281.903 66.352C283.092 64.9027 283.047 63.8453 282.625 63.0706C263.061 75.376 154.704 128.356 154.704 128.356L153.376 131.127Z" fill="#0B6162"/>
<path d="M156.236 125.801C157.747 125.169 277.608 62.9334 277.608 62.9334C277.608 62.9334 270.437 52.6894 277.352 41.6761L153.393 91.6187L142.892 111.339L156.236 125.801Z" fill="#F78D95"/>
<path d="M37.8161 51.7601C37.8161 51.7601 29.7473 57.4561 30.2223 65.9987C30.6967 74.5427 35.2057 83.7974 40.189 86.4081C45.1729 89.0187 156.236 125.801 156.236 125.801C156.236 125.801 145.318 110.377 157.184 94.0014L37.8161 51.7601Z" fill="white"/>
<path d="M31.4497 50.796C31.4497 50.796 178.709 0 180.655 0C182.599 0 279.139 35.7587 280.111 36.7307C281.084 37.704 281.732 39.9733 280.76 41.2693C279.787 42.5667 159.369 95.36 159.369 95.36L31.4497 50.796Z" fill="#098C8B"/>
<path d="M158.456 95.0427L159.369 95.36C159.369 95.36 279.787 42.5667 280.76 41.2693C281.529 40.2427 281.277 38.6173 280.66 37.4973C259.015 48.0373 160.036 92.028 160.036 92.028L158.456 95.0427Z" fill="#0B6162"/>
<path d="M154.037 131.356C154.037 131.356 45.7162 96.6933 39.3845 92.3613C33.0515 88.028 24.7187 80.3626 24.3854 67.364C24.0521 54.3653 29.0521 51.0333 34.7178 49.7C40.3839 48.3666 159.036 90.3613 160.036 92.028C161.036 93.6946 161.036 95.6933 159.369 95.36C157.702 95.0266 39.3845 54.032 36.3845 53.6986C33.3849 53.3653 27.0521 57.032 27.7187 66.6973C28.3854 76.3626 33.7182 85.028 40.7173 89.028C47.7162 93.028 153.37 127.356 154.704 128.356C156.037 129.356 156.369 131.023 154.037 131.356Z" fill="#0FAFA9"/>
<path d="M273.018 61.2468C243.457 74.9734 214.224 89.4201 185.313 104.471C177.102 108.745 168.557 112.784 160.816 117.875C160.581 118.028 160.784 118.349 161.032 118.243C168.602 115.004 175.82 110.805 183.113 106.991C190.24 103.265 197.388 99.5761 204.554 95.9268C219.077 88.5321 233.682 81.2974 248.364 74.2241C256.753 70.1814 265.17 66.1974 273.604 62.2481C274.28 61.9321 273.692 60.9348 273.018 61.2468Z" fill="#FAC1BE"/>
<path d="M262.195 60.6813C259.013 61.4119 256.061 63.1626 253.139 64.5799L244.06 68.9839L225.608 77.9333C213.307 83.8999 201.005 89.8653 188.704 95.8319C181.676 99.2399 174.751 102.799 167.859 106.473C167.74 106.537 167.845 106.701 167.961 106.649C193.011 95.6879 217.44 83.2439 242.052 71.3386C245.569 69.6373 249.085 67.9359 252.603 66.2346C255.876 64.6506 259.531 63.2853 262.383 61.0039C262.544 60.8746 262.365 60.6413 262.195 60.6813Z" fill="#FAC1BE"/>
<path d="M222.537 72.9333C220.057 73.564 217.625 75.0973 215.309 76.184C212.96 77.288 210.609 78.3906 208.258 79.4946C203.362 81.7933 198.466 84.092 193.57 86.3893C183.798 90.9773 173.86 95.3427 164.313 100.385C163.984 100.56 164.214 101.147 164.572 100.999C174.394 96.9466 183.954 92.1853 193.576 87.68L208.27 80.796C210.622 79.6946 212.974 78.5946 215.325 77.492C217.784 76.3413 220.709 75.3973 222.905 73.8066C223.326 73.5013 223.092 72.792 222.537 72.9333Z" fill="#FAC1BE"/>
<path d="M254.045 58.8107C253.439 58.832 253.439 58.7147 252.893 58.9107C252.487 59.0574 252.103 59.2414 251.715 59.432C250.811 59.8787 249.916 60.3467 249.007 60.788C247.304 61.6147 245.579 62.392 243.848 63.1574C242.051 63.952 240.236 64.704 238.404 65.412C237.46 65.776 236.513 66.1374 235.58 66.5294C234.941 66.7974 234.249 67.008 233.859 67.6054C233.828 67.6534 233.861 67.7094 233.907 67.7254C234.66 67.9947 235.487 67.648 236.221 67.4307C237.188 67.1427 238.137 66.808 239.083 66.456C240.849 65.7987 242.599 65.1 244.335 64.3654C246.136 63.6027 247.908 62.772 249.663 61.9094C250.568 61.464 251.479 61.024 252.364 60.5414C252.773 60.3187 253.319 60.0747 253.645 59.7374C253.881 59.4947 253.929 59.28 254.143 58.9787C254.192 58.9094 254.127 58.808 254.045 58.8107Z" fill="#FAC1BE"/>
<path d="M142.873 111.036C136.3 108.372 129.505 106.164 122.812 103.823C116.104 101.477 109.377 99.188 102.637 96.94C89.3613 92.5147 76.0284 88.2334 62.6044 84.2747C54.9164 82.008 47.1669 79.3627 39.2684 77.9667C39.047 77.928 38.9705 78.2187 39.1768 78.3C45.7626 80.932 52.7257 82.6707 59.5033 84.7534C66.2956 86.8414 73.0898 88.9187 79.8637 91.0613C93.2093 95.2813 106.512 99.632 119.751 104.177C127.364 106.789 134.903 109.696 142.565 112.155C143.292 112.388 143.547 111.309 142.873 111.036Z" fill="#FAC1BE"/>
<path d="M61.7072 76.692L78.8467 82.536C78.8467 82.536 65.6024 99.2854 71.2515 118.179L60.1488 107.076L53.1373 113.309C53.1373 113.309 45.1515 91.884 61.7072 76.692Z" fill="#663291"/>
<path d="M145.548 103.025C142.237 101.641 138.533 100.933 135.08 99.9534C131.582 98.96 128.084 97.9654 124.596 96.9387C117.62 94.884 110.67 92.7374 103.75 90.5C90.0118 86.06 76.3848 81.2587 62.8739 76.168C55.2058 73.2787 47.563 70.3187 39.8995 67.42C39.6214 67.316 39.4219 67.78 39.6954 67.904C66.1864 79.8974 93.9958 89.248 121.854 97.5027C125.838 98.684 129.83 99.8387 133.833 100.956C137.613 102.011 141.536 103.401 145.432 103.885C145.968 103.952 145.957 103.196 145.548 103.025Z" fill="#FAC1BE"/>
<path d="M145.09 95.6666C139.814 94.0613 134.429 92.8346 129.106 91.3853C123.684 89.9093 118.296 88.3039 112.949 86.5719C107.7 84.8706 102.492 83.0439 97.3264 81.0999C92.0917 79.1306 86.8997 76.9519 81.5468 75.3239C81.4583 75.2972 81.4036 75.4279 81.4839 75.4733C86.2957 78.2213 91.5291 80.2613 96.6997 82.2279C101.856 84.1893 107.072 86.0026 112.32 87.7053C122.92 91.1453 133.876 94.6559 144.928 96.2559C145.306 96.3106 145.477 95.7853 145.09 95.6666Z" fill="#FAC1BE"/>
</svg>
