<?xml version="1.0" encoding="UTF-8" standalone="no"?>
<!-- Created with Inkscape (http://www.inkscape.org/) -->

<svg
   width="102.85307mm"
   height="118.61755mm"
   viewBox="0 0 388.73601 448.31829"
   version="1.1"
   id="svg1"
   xml:space="preserve"
   xmlns:inkscape="http://www.inkscape.org/namespaces/inkscape"
   xmlns:sodipodi="http://sodipodi.sourceforge.net/DTD/sodipodi-0.dtd"
   xmlns="http://www.w3.org/2000/svg"
   xmlns:svg="http://www.w3.org/2000/svg"><sodipodi:namedview
     id="namedview1"
     pagecolor="#505050"
     bordercolor="#eeeeee"
     borderopacity="1"
     inkscape:showpageshadow="0"
     inkscape:pageopacity="0"
     inkscape:pagecheckerboard="0"
     inkscape:deskcolor="#505050"
     inkscape:document-units="mm" /><defs
     id="defs1" /><g
     inkscape:label="Capa 1"
     inkscape:groupmode="layer"
     id="layer1"
     transform="translate(-105.47486,-359.40472)"><g
       id="g1"
       transform="matrix(0.87648315,0,0,0.87648315,-41.059148,86.889519)"
       style="fill:#b3b3b3"><path
         style="fill:#b3b3b3;fill-opacity:1"
         d="m 373.0145,446.07674 c 0.72187,-0.28887 1.58437,-0.25334 1.91666,0.079 0.33229,0.33229 -0.25833,0.56864 -1.3125,0.52522 -1.16494,-0.048 -1.4019,-0.28494 -0.60416,-0.60417 z"
         id="path5" /><path
         style="fill:#b3b3b3;fill-opacity:1"
         d="m 191.58736,771.75986 c 0,-6.875 0.15976,-9.6875 0.35503,-6.25 0.19527,3.4375 0.19527,9.0625 0,12.5 -0.19527,3.4375 -0.35503,0.625 -0.35503,-6.25 z m 310.05173,-63.25 -2.93709,-3.25 3.25,2.93709 c 3.02945,2.73778 3.70965,3.56291 2.93709,3.56291 -0.1721,0 -1.6346,-1.4625 -3.25,-3.25 z m -310.00465,-33.75 c 0,-13.475 0.14155,-18.9875 0.31456,-12.25 0.173,6.7375 0.173,17.7625 0,24.5 -0.17301,6.7375 -0.31456,1.225 -0.31456,-12.25 z m 194.13185,-63.29313 c 0.37553,-0.98622 0.93469,-1.54122 1.24258,-1.23333 0.30788,0.30788 6.3e-4,1.11479 -0.68279,1.79312 -0.98761,0.98027 -1.10248,0.86541 -0.55979,-0.55979 z M 191.63444,566.75986 c 0,-13.475 0.14155,-18.9875 0.31456,-12.25 0.173,6.7375 0.173,17.7625 0,24.5 -0.17301,6.7375 -0.31456,1.225 -0.31456,-12.25 z m 133.44,22.25 c -1.24387,-1.58606 -1.2085,-1.62143 0.37756,-0.37756 1.66574,1.30637 2.19547,2.12756 1.37244,2.12756 -0.20765,0 -0.99515,-0.7875 -1.75,-1.75 z m -133.44,-130.25 c 0,-13.475 0.14155,-18.9875 0.31456,-12.25 0.173,6.7375 0.173,17.7625 0,24.5 -0.17301,6.7375 -0.31456,1.225 -0.31456,-12.25 z m -0.0471,-97 c 0,-6.875 0.15976,-9.6875 0.35503,-6.25 0.19527,3.4375 0.19527,9.0625 0,12.5 -0.19527,3.4375 -0.35503,0.625 -0.35503,-6.25 z"
         id="path4" /><path
         style="fill:#b3b3b3;fill-opacity:1"
         d="m 476.69347,683.50986 -21.99147,-22.25 22.25,21.99147 c 20.67447,20.43426 22.70109,22.50853 21.99147,22.50853 -0.14219,0 -10.15469,-10.0125 -22.25,-22.25 z"
         id="path3" /><path
         style="fill:#b3b3b3;fill-opacity:1"
         d="m 203.07444,811.00986 c -1.24387,-1.58606 -1.2085,-1.62143 0.37756,-0.37756 0.9625,0.75485 1.75,1.54235 1.75,1.75 0,0.82304 -0.82119,0.29331 -2.12756,-1.37244 z M 362.0145,668.07674 c 0.72187,-0.28887 1.58437,-0.25334 1.91666,0.079 0.33229,0.33229 -0.25833,0.56864 -1.3125,0.52522 -1.16494,-0.048 -1.4019,-0.28494 -0.60416,-0.60417 z m 22,0 c 0.72187,-0.28887 1.58437,-0.25334 1.91666,0.079 0.33229,0.33229 -0.25833,0.56864 -1.3125,0.52522 -1.16494,-0.048 -1.4019,-0.28494 -0.60416,-0.60417 z m 68.11181,-9.06688 -2.42431,-2.75 2.75,2.42431 c 2.57028,2.26589 3.20858,3.07569 2.42431,3.07569 -0.17913,0 -1.41663,-1.2375 -2.75,-2.75 z M 476.202,633.3823 c 0,-0.20765 0.7875,-0.99515 1.75,-1.75 1.58605,-1.24387 1.62142,-1.2085 0.37755,0.37756 -1.30637,1.66575 -2.12755,2.19548 -2.12755,1.37244 z M 375.47103,613.06687 c 0.97297,-0.25355 2.32297,-0.23687 3,0.0371 0.67703,0.27392 -0.11903,0.48137 -1.76903,0.46099 -1.65,-0.0204 -2.20394,-0.2445 -1.23097,-0.49804 z m 64.23097,-5.30701 c 0.99548,-1.1 2.03497,-2 2.30997,-2 0.275,0 -0.31449,0.9 -1.30997,2 -0.99549,1.1 -2.03498,2 -2.30998,2 -0.275,0 0.31449,-0.9 1.30998,-2 z m -118.62756,-22.75 c -1.24387,-1.58606 -1.2085,-1.62143 0.37756,-0.37756 0.9625,0.75485 1.75,1.54235 1.75,1.75 0,0.82304 -0.82119,0.29331 -2.12756,-1.37244 z m 146.2065,-39.83334 c 0.048,-1.16494 0.28494,-1.4019 0.60417,-0.60416 0.28887,0.72187 0.25334,1.58437 -0.079,1.91666 -0.33229,0.3323 -0.56864,-0.25833 -0.52522,-1.3125 z M 245.434,540.75986 c 0,-1.925 0.20579,-2.7125 0.45732,-1.75 0.25153,0.9625 0.25153,2.5375 0,3.5 -0.25153,0.9625 -0.45732,0.175 -0.45732,-1.75 z m 58.84694,-1.58334 c 0.048,-1.16494 0.28494,-1.4019 0.60417,-0.60416 0.28887,0.72187 0.25334,1.58437 -0.079,1.91666 -0.33229,0.3323 -0.56864,-0.25833 -0.52522,-1.3125 z m 163.07895,-2.41666 c 0,-1.375 0.22697,-1.9375 0.50439,-1.25 0.27741,0.6875 0.27741,1.8125 0,2.5 -0.27742,0.6875 -0.50439,0.125 -0.50439,-1.25 z m -188.07895,-4.58334 c 0.048,-1.16494 0.28494,-1.4019 0.60417,-0.60416 0.28887,0.72187 0.25334,1.58437 -0.079,1.91666 -0.33229,0.3323 -0.56864,-0.25833 -0.52522,-1.3125 z m 185.7935,-80.16666 c -1.24387,-1.58606 -1.2085,-1.62143 0.37756,-0.37756 1.66574,1.30637 2.19547,2.12756 1.37244,2.12756 -0.20765,0 -0.99515,-0.7875 -1.75,-1.75 z M 365.952,413.09758 c 0.6875,-0.27742 1.8125,-0.27742 2.5,0 0.6875,0.27741 0.125,0.50438 -1.25,0.50438 -1.375,0 -1.9375,-0.22697 -1.25,-0.50438 z m 13.0625,-0.0208 c 0.72187,-0.28887 1.58437,-0.25334 1.91666,0.079 0.33229,0.33229 -0.25833,0.56864 -1.3125,0.52522 -1.16494,-0.048 -1.4019,-0.28494 -0.60416,-0.60417 z M 202.202,323.3823 c 0,-0.20765 0.7875,-0.99515 1.75,-1.75 1.58605,-1.24387 1.62142,-1.2085 0.37755,0.37756 -1.30637,1.66575 -2.12755,2.19548 -2.12755,1.37244 z"
         id="path2" /><path
         style="fill:#b3b3b3;fill-opacity:1"
         d="m 224.202,821.62558 c -13.93506,-2.32993 -26.22312,-13.3939 -30.48719,-27.45019 -1.03878,-3.42428 -1.49445,-9.542 -1.50199,-20.16553 l -0.0108,-15.25 H 181.357 c -9.23648,0 -11.09048,-0.27124 -12.5,-1.82874 -1.45272,-1.60524 -1.65498,-5.0815 -1.65498,-28.4433 0,-32.00641 -1.12839,-29.72796 14.7225,-29.72796 h 10.2775 v -24 -24 h -10.2775 c -15.86143,0 -14.7225,2.32078 -14.7225,-30 0,-32.32079 -1.13893,-30 14.7225,-30 h 10.2775 v -24 -24 h -10.2775 c -15.85764,0 -14.7225,2.30548 -14.7225,-29.90172 0,-24.68209 0.14378,-26.91843 1.82874,-28.4433 1.46117,-1.32234 3.9736,-1.65498 12.5,-1.65498 H 192.202 v -24 -24 h -10.2775 c -15.85764,0 -14.7225,2.30548 -14.7225,-29.90172 0,-24.68209 0.14378,-26.91843 1.82874,-28.4433 1.46117,-1.32234 3.9736,-1.65498 12.5,-1.65498 H 192.202 l 0.0108,-15.25 c 0.008,-10.62354 0.46321,-16.74125 1.50199,-20.16554 4.46885,-14.73132 16.6578,-25.23899 31.98719,-27.57504 4.80989,-0.73298 61.28328,-0.97955 180.5,-0.78808 l 173.5,0.27866 5.75208,2.32263 c 11.11396,4.48769 19.52907,13.28925 23.45094,24.52788 1.70858,4.89618 1.79698,16.14346 1.79698,228.64949 0,212.50602 -0.0884,223.7533 -1.79698,228.64948 -3.92187,11.23863 -12.33698,20.04019 -23.45094,24.52789 l -5.75208,2.32263 -175,0.14265 c -102.55283,0.0836 -177.27692,-0.23803 -180.5,-0.77693 z M 536.37693,717.99802 c 6.62845,-2.94534 10.827,-7.06287 13.96463,-13.69516 3.34089,-7.06191 3.71924,-13.60532 1.2209,-21.11486 -1.44461,-4.34224 -5.21498,-8.52457 -31.71313,-35.17814 -16.54048,-16.6375 -30.31519,-30.2403 -30.61046,-30.22844 -0.29528,0.0119 -2.33687,2.57251 -4.53687,5.69033 -5.32933,7.55268 -21.64099,23.82428 -28.77499,28.70432 -3.14876,2.15392 -5.72501,4.19605 -5.72501,4.53805 0,1.16337 58.48752,58.77818 61,60.0898 8.2077,4.28476 17.25381,4.71384 25.17493,1.1941 z M 390.51044,667.67996 c 49.3235,-7.40649 88.73991,-39.94008 104.09739,-85.9201 20.41024,-61.1079 -7.10905,-127.18117 -64.7707,-155.51316 -28.93004,-14.21474 -61.11629,-17.00777 -92.13513,-7.99522 -46.23449,13.43347 -81.55612,52.67996 -90.01094,100.01276 -1.94514,10.88946 -2.19005,31.07907 -0.50943,41.99562 9.53237,61.91824 62.58891,107.8074 125.32881,108.39822 5.94465,0.056 14.04465,-0.38418 18,-0.97812 z M 353.702,632.90595 c -18.34057,-4.19878 -33.74753,-12.60052 -46.50973,-25.36272 -20.33592,-20.33592 -30.33249,-48.59697 -27.10076,-76.61588 5.39767,-46.79746 41.86839,-81.29864 88.61049,-83.82522 41.19139,-2.22655 77.6946,21.6031 93.0282,60.72969 5.71899,14.5931 7.36503,36.28797 3.97784,52.42804 -7.10806,33.87013 -32.43398,61.06217 -66.21772,71.09693 -12.00298,3.56524 -33.76574,4.30154 -45.78832,1.54916 z m 32.71156,-20.95766 c 1.67047,-1.67047 -0.91393,-4.12245 -10.61647,-10.0725 -22.95513,-14.07716 -34.98112,-27.64949 -41.19193,-46.48853 -3.23366,-9.80855 -5.69507,-14.88943 -9.64411,-19.9075 -7.6666,-9.74202 -18.40813,-8.67543 -20.21292,2.00705 -0.80897,4.78823 0.74205,17.06738 3.0206,23.91363 8.15888,24.51458 31.75491,44.22889 60.90554,50.88613 6.80281,1.55359 16.02326,1.37776 17.73929,-0.33828 z"
         id="path1" /></g></g></svg>
